<svg xmlns="http://www.w3.org/2000/svg" width="24" height="24" viewBox="0 0 24 24">
    <g fill="#949494" fill-rule="nonzero">
        <path d="M15.446 14.5H13.97a.248.248 0 0 1-.232-.161l-.842-2.229a.369.369 0 0 0-.023-.049 1.05 1.05 0 0 0-1.85.048l-.842 2.23a.25.25 0 0 1-.234.161H8.468a.982.982 0 0 0-.93.611c-.156.41-.036.873.299 1.155l1.229.859a.25.25 0 0 1 .086.3l-.714 1.646c-.178.4-.076.868.25 1.157.327.301.812.355 1.196.133l1.951-1.1a.248.248 0 0 1 .245 0l1.95 1.1a1.014 1.014 0 0 0 1.194-.133c.327-.29.428-.758.25-1.157l-.715-1.648a.25.25 0 0 1 .086-.3l1.296-.911a1.01 1.01 0 0 0 .238-1.1.984.984 0 0 0-.933-.612zM6.238 5.415a.258.258 0 0 0-.01.067V9.3a.25.25 0 0 0 .114.209 4.899 4.899 0 0 0 2.68.807 4.638 4.638 0 0 0 2.055-.474.25.25 0 0 0 .14-.224V.25a.25.25 0 0 0-.25-.25H7.911a.248.248 0 0 0-.236.185c-.1.367-.421 1.525-1.438 5.23zM12.709 9.611a.25.25 0 0 0 .14.224 4.702 4.702 0 0 0 2.465.46 4.843 4.843 0 0 0 2.371-.842.018.018 0 0 0 .008-.015V5.482a.253.253 0 0 0-.009-.067L16.25.185A.247.247 0 0 0 16.01 0h-3.05a.25.25 0 0 0-.25.25l-.001 9.361z"/>
        <path d="M23.926 5.262a.417.417 0 0 0-.034-.189L22.167.966A1.496 1.496 0 0 0 20.817 0h-2.739a.248.248 0 0 0-.24.316l1.325 4.832a.79.79 0 0 1 .026.2V8.92c0 .103.063.195.158.233.362.143.745.225 1.133.24l-.043 12.358a.25.25 0 0 1-.25.249H3.69a.25.25 0 0 1-.25-.25V9.391c.39-.014.775-.094 1.138-.238a.25.25 0 0 0 .158-.233V5.347a.79.79 0 0 1 .026-.2L6.081.316A.25.25 0 0 0 5.844 0H3.109c-.603.02-1.135.4-1.35.966L.045 5.073a.408.408 0 0 0-.035.18v.927a3.178 3.178 0 0 0 1.332 2.55c.062.047.1.121.1.2V22a2.026 2.026 0 0 0 2.048 2h16.948a2.026 2.026 0 0 0 2.047-2V8.93c0-.079.037-.153.1-.2a3.23 3.23 0 0 0 1.342-2.548v-.92z"/>
    </g>
</svg>
